/* XPM */
static char *bitcoin161708370693[] = {
/* columns rows colors chars-per-pixel */
"16 16 113 2 ",
"   c None",
".  c #010101",
"X  c #020201",
"o  c #020202",
"O  c gray1",
"+  c #010700",
"@  c #020601",
"#  c #030703",
"$  c #040404",
"%  c gray2",
"&  c #040B03",
"*  c #030C02",
"=  c #090909",
"-  c #090A09",
";  c #090B09",
":  c #0B0B0B",
">  c #090F08",
",  c #0C0C0C",
"<  c #021000",
"1  c #041002",
"2  c #051203",
"3  c #051B03",
"4  c #0F130E",
"5  c #121512",
"6  c #181D17",
"7  c #072403",
"8  c #072E02",
"9  c #082F02",
"0  c #10250D",
"q  c #102F0C",
"w  c #0A3F03",
"e  c #0C3B05",
"r  c #0E3D08",
"t  c #10390A",
"y  c #172016",
"u  c #153311",
"i  c #153411",
"p  c #283C25",
"a  c #0B4105",
"s  c #144F0C",
"d  c #0B5301",
"f  c #0B5302",
"g  c #0B5801",
"h  c #0B5901",
"j  c #16550D",
"k  c #1B4116",
"l  c #1F4A1A",
"z  c #1A5412",
"x  c #1B5813",
"c  c #1C5D14",
"v  c #0C6301",
"b  c #0D6301",
"n  c #0F6902",
"m  c #0D6E00",
"M  c #0E6F02",
"N  c #0E7101",
"B  c #0E7400",
"V  c #177D09",
"C  c #1C7D10",
"Z  c #28681F",
"A  c #207116",
"S  c #227D16",
"D  c #27771D",
"F  c #27781C",
"G  c #254921",
"H  c #284B24",
"J  c #295F22",
"K  c #2F6827",
"L  c #2C7F21",
"P  c #0F8100",
"I  c #108101",
"U  c #118501",
"Y  c #108600",
"T  c #108700",
"R  c #118901",
"E  c #118B00",
"W  c #128D01",
"Q  c #118F00",
"!  c #17800A",
"~  c #1D850F",
"^  c #139E01",
"/  c #149D02",
"(  c #159F02",
")  c #1F9F0E",
"_  c #208D11",
"`  c #208F12",
"'  c #229013",
"]  c #279419",
"[  c #299D19",
"{  c #15A103",
"}  c #18A006",
"|  c #1AA707",
" . c #17B202",
".. c #20A00F",
"X. c #21A30F",
"o. c #20B00C",
"O. c #22BA0D",
"+. c #2BA31B",
"@. c #27B814",
"#. c #36822B",
"$. c #309C21",
"%. c #319924",
"&. c #329824",
"*. c #33A223",
"=. c #3AAA2B",
"-. c #36B125",
";. c #1BCD03",
":. c #1DCF05",
">. c #27C013",
",. c #28C213",
"<. c #2AC316",
"1. c #34D71F",
"2. c #3AC028",
/* pixels */
"            ~ A F *.            ",
"      ^ r : : : : $ 6 K 1.      ",
"    m @ $ o o $ o o o $ y -.    ",
"  B o o o o o o o o o o o 5 2.  ",
"  * $ $ $ $ $ $ $ o $ $ $ o p   ",
"f : : : : : : > , : , , , , , =.",
"w &.> V x ) X.&.! ..$.0 _ c +.#.",
"< } l @.e >.' z { D  .k h :.j H ",
"* v O.] 8 <._ Z / | <.i m ;.J G ",
"9 3 R t 7 Q Y C n q N s I a S L ",
"h > : : : : : : , , , , , , , [ ",
"  2 $ $ $ $ $ o o $ o $ o $ u   ",
"  Y : : : : : : : : : , , 4 o.  ",
"    Y @ o o o o o o o o < /     ",
"        f $ $ $ o $ & b         ",
"            Q P P Q             "
};
