/* XPM */
static char *bitcoin641708370694[] = {
/* columns rows colors chars-per-pixel */
"64 64 200 2 ",
"   c None",
".  c #010101",
"X  c #020C01",
"o  c #0D0D0D",
"O  c #031401",
"+  c #081306",
"@  c #061E03",
"#  c #091F06",
"$  c #0C180B",
"%  c #10180F",
"&  c #141414",
"*  c #131812",
"=  c #1A1A1A",
"-  c #052301",
";  c #062B02",
":  c #0A2C06",
">  c #0D250A",
",  c #0C2B09",
"<  c #073301",
"1  c #0A3305",
"2  c #073B01",
"3  c #083B01",
"4  c #0E320A",
"5  c #0F390A",
"6  c #123A0D",
"7  c #1E2A1D",
"8  c #1A2619",
"9  c #232323",
"0  c #2B2B2B",
"q  c #2C322C",
"w  c #343434",
"e  c #3B3B3B",
"r  c #094601",
"t  c #094C01",
"y  c #0A5300",
"u  c #0B5C01",
"i  c #105507",
"p  c #14540C",
"a  c #1A4B13",
"s  c #1B4315",
"d  c #1B5A12",
"f  c #1F5818",
"g  c #245E1D",
"h  c #0C6400",
"j  c #0D6B00",
"k  c #0E7400",
"l  c #0F7B00",
"z  c #167D08",
"x  c #1F6516",
"c  c #136708",
"v  c #24681A",
"b  c #265221",
"n  c #2A5A24",
"m  c #305F2A",
"M  c #3F453E",
"N  c #274B23",
"B  c #2B6523",
"V  c #2F6428",
"C  c #316C2A",
"Z  c #32622C",
"A  c #396F33",
"S  c #3C7A34",
"D  c #33732B",
"F  c #457C3E",
"G  c gray27",
"H  c #4C4C4C",
"J  c #525252",
"K  c #5B5B5B",
"L  c #525851",
"P  c #477C40",
"I  c #5E625D",
"U  c #577354",
"Y  c #4C6449",
"T  c #676967",
"R  c #6D736C",
"E  c #757775",
"W  c #0F8200",
"Q  c #118401",
"!  c #118B00",
"~  c #1A8A0C",
"^  c #119400",
"/  c #139E00",
"(  c #1D9C0B",
")  c #1F8312",
"_  c #248218",
"`  c #2E9D1F",
"'  c #259716",
"]  c #13A200",
"[  c #14AB00",
"{  c #1DA30C",
"}  c #16B400",
"|  c #16BC00",
" . c #21BE0C",
".. c #2EAC1D",
"X. c #2FB81C",
"o. c #30B81E",
"O. c #2E8322",
"+. c #2F9222",
"@. c #3C8732",
"#. c #3F9134",
"$. c #38882E",
"%. c #3BA42D",
"&. c #3BAC2D",
"*. c #33A124",
"=. c #3CBC2B",
"-. c #3AB729",
";. c #3EAD30",
":. c #3FB330",
">. c #44843C",
",. c #45933A",
"<. c #40B730",
"1. c #41BA31",
"2. c #4BBD3C",
"3. c #47BD38",
"4. c #43AA36",
"5. c #17C400",
"6. c #19C602",
"7. c #17C800",
"8. c #19CB01",
"9. c #1FC508",
"0. c #19D200",
"q. c #1ADA01",
"w. c #23C50D",
"e. c #24CC0D",
"r. c #24D30D",
"t. c #26DC0D",
"y. c #20D707",
"u. c #26C311",
"i. c #2EC41A",
"p. c #28CB12",
"a. c #32C61D",
"s. c #31CB1C",
"d. c #2AD913",
"f. c #2CD215",
"g. c #33DC1C",
"h. c #31D21B",
"j. c #1BE300",
"k. c #1CEB00",
"l. c #1DF500",
"z. c #1EFF00",
"x. c #24E90A",
"c. c #23F407",
"v. c #21FC04",
"b. c #25F908",
"n. c #23F108",
"m. c #2EEF14",
"M. c #2CE713",
"N. c #33E71B",
"B. c #2CF312",
"V. c #3CC429",
"C. c #3CCA29",
"Z. c #36C623",
"A. c #35D421",
"S. c #3ADB24",
"D. c #3DD429",
"F. c #3DD928",
"G. c #3BE723",
"H. c #39E822",
"J. c #41CC2F",
"K. c #41C62F",
"L. c #42D12F",
"P. c #49C539",
"I. c #46C635",
"U. c #4CD539",
"Y. c #4CD939",
"T. c #47D834",
"R. c #4C8644",
"E. c #4B8C42",
"W. c #52894B",
"Q. c #4D9044",
"!. c #54934B",
"~. c #588F51",
"^. c #64905E",
"/. c #4EB341",
"(. c #55B748",
"). c #5EBA51",
"_. c #60A258",
"`. c #67B85C",
"'. c #689962",
"]. c #698465",
"[. c #70A26A",
"{. c #6EB265",
"}. c #7CBC73",
"|. c #71AF68",
" X c #53C343",
".X c #5BC44D",
"XX c #5BCB4C",
"oX c #55CB46",
"OX c #53D942",
"+X c #56D546",
"@X c #5FC550",
"#X c #68C65B",
"$X c #70C165",
"%X c #76C76B",
"&X c #76D768",
"*X c #7CC771",
"=X c #7ED672",
"-X c #80957D",
";X c #81C677",
":X c #82CA78",
/* pixels */
"                                                                                                                                ",
"                                                    z.z.z.z.z.z.z.z.z.z.z.z.                                                    ",
"                                          z.z.z.z.q.{ _ v B V m Z C S @.%.s.n.z.z.z.                                            ",
"                                      z.z.0.z a 8 = & = & & & & & & = 9 0 e G Y E.=.c.z.z.                                      ",
"                                z.z.k.k : . . . . . . . . . . . . . . . . . . o = w L Q.C.v.z.                                  ",
"                              z.q.u X . . . . . . . . . . . . . . . . . . . . . . . o = e U 1.v.z.                              ",
"                          z.l.j X o o o o o o o o o o o o o o o o o o o o o o o o o o o o 9 H ].L.z.z.                          ",
"                        z.] O . o o o o o o o o o o o o o o o o o o o o o o o o o o o o o o & 0 K '.m.z.                        ",
"                    z.z.y . o o o o o o o o o o o o o o o o o o o o o o o o o o o o o o o o o o & e R T.z.                      ",
"                  z.q.; . . . . . . . . . . . . . . . . . . . . . . . . . . . . . . . . . . . . . . = K ).v.z.                  ",
"                z.5.O . . . . . . . . . . . . . . . . . . . . . . . . . . . . . . . . . . . . . . . . o J [.c.z.                ",
"              z.| X . . . . . . . . . . . . . . . . . . . . . . . . . . . . . . . . . . . . . . . . . . . 0 '.b.z.              ",
"            z.5.X . . . . . . . . . . . . . . . . . . . . . . . . . . . . . . . . . . . . . . . . . . . . . G [.v.              ",
"          z.j.O . X . . . . o . . . . o o X . . . . o . o . . . . . o . . . o . . . o . . . o . . . o . . . o H {.v.            ",
"          l.; . . . . . . . . . . . . . . . . . . . . . . . . . . . . . . . . . . . . . . . . . . . . . . . . o K XXz.          ",
"        z.h . . . . . . . . . . . . . . . . . . . . . . . . . . . . . . . . . . . . . . . . . . . . . . . . . . = R G.z.        ",
"      z.} . X o o o o o o o o o o o o o o o o o o o o o o o o o o o o & o o o o o o o & o o o o o o o o o o o o o w [.B.        ",
"      l.- . . . . . . . . . . . . . . . . . . . . . . . . . . . . . . . . . . . . . . . . . . . . . . . . . . . . . H .Xv.      ",
"    z.W . . . . . . . . . . . . . . . . . . . . . . . . . . . . . . . . . . . . . . . . . . . . . . . . . . . . . . o T m.z.    ",
"    l.O . . . . . . . . . . . . . . . . . . . . . . . . . . . . . . . . . . . . . . . . . . . . . . . . . . . . . o . G `.v.    ",
"  z.W . o o o & & o o & & o o & & o & o & & o o & o o & & o o & & o & o & o o & & o & o & o o & & & & o o o & o o o o 9 ].m.    ",
"  z.- . o & o o o o o o o o o o o o o o o o & o o o o o o o o o o o o o o o o o o o o o o o o o o o o o & o o o o o o & J @Xz.  ",
"z.5.. o o o o o o o o o o o o o o o o o o o o o o o o o o o o o o o o o o o o o o o o o o o o o o o o o o o o o & o o o 0 [.v.  ",
"z.h . . . . . . . . . . . . . . . . . . . . . . . . . . . . . . . . . . . . . . . . . . . . . . . . . . . . . . . . . . o T H.  ",
"z.- X @ - # @ # o o . o o @ @ @ @ @ + - @ @ - @ @ - @ @ @ @ @ @ @ @ @ - # @ @ - @ @ + o o . + @ @ @ @ # O o o # @ @ - @ # H oXz.",
"j.. - h ` %./.P X . . . @ j *.&./.Q.1 Q &.;.:.:.:.:.:.:.=.:./.R.r ( &.:.:.:.<.1.1./.>.4 . . @ u ' %.;.).n . O j *.1.1.).C 7 '.z.",
"] . O 2 ] e.C.*X@ . . . ; Q 9.r.oXB : h 9.u.e.e.e.e.r.r.t.t.J.!.3 Q w.e.e.e.e.r.d.N.+X%Xs . . ; h 9.w.K.}., 3 ^ q.m.H.3.: o T b.",
"j . & < k 8.y.&Xg & & % r ] 8.e.(.5 : h 8.8.5.6.8.7.6.8.8.8.=.Q.3 l 6.5.6.| | } | 0.j.U.}., * > 2 ^ q.6.@X>.Q } q.x.F.d * = E N.",
"t . . - y 7.8.+XW.X . @ u 5.5.a.,.O ; h 0.0.6.} / / / / ] / { @.3 W 0.9.i.l h u y ! 0.x.&Xn . . - t 8.j.e.C.6.8.q.g.+.O . . G S.",
"2 . . X 2 [ 0.s.;X@ . ; k 5.6.I.g X - j 0.0.V.c r r r t t r r r < ! 0.u.#X; O O ; t 5.j.+XA X . X < l j.q.8.6.8.t.J.3 . . . e L.",
"; . . . ; k q.9.%XN X 3 ^ 7.r..X, . ; j q.8. X,.O.O.O.O.@.n O . < ^ q. .%X5 4 1 r W 6.j.Y.V . . . O r [ j.8.6.q.D.x X . . . e P.",
"- . . . - y 0.8.2.W.; y [ 0.A.,.O . ; k j.0.u.Z.Z.s.s.h.XXP X . < ! q.6.I. X1.=.w.5.0.x.OX6 . . . . ; j 0.8.8.g.4.- . . . . e P.",
"- . . . O 3 [ j.X.}.3 k 6.0.U.v X . > k j.0.6.| } } | 5.Z.S X . < ! q.8.5.6.9.6.8.7.q.d._ # . . X . : Q 0.7.0.D._.@ . X . . w 2.",
"; . o o o < k j.0.XX' [ 0.t.XX: o o ; k j.0.Z.Q u h h j k d + o < W 0.8.5.| 5.5.7.9.A.~ - o X o o $ h | 0.7.0.t.&XZ + o o o G P.",
"2 . . . . - y q.j.f.w.8.0.S.,.O . . ; k j.0. XC d d d d f d f a < W 7.9.u.l / 5.5.e.XXD d n O . X r ] 0.8.5.8.j.S.:X4 . . . e C.",
"y . . . . X 3 [ k.0.7.0.q.Y.g X . . ; k k.0.a.K.=.V.V.C.C.V.(.!.2 l 8.u.XX3 r ] 8.8.s.T.Y.*X- . - k 8.0.8.} [ 0.j.+X~.+ . . w s.",
"j . . . . . < k k.q.8.8.t.XX: . . . - k k.j.7.6.6.6.8.8.8.6.=.Q.3 l 8. .%X; ; r } q.8.q.d.$X@ + y } q.0.s.z t ] 0.d.*Xg . o J M.",
"[ . o & & & > t 0.k.0.5.f.,.$ & & & : k j.j.0.7.5.5.5.5.5.| X.Q.3 l 6.w.$X, % 1 t [ 0.5.| `.> 3 ! 0.q.e.-.1 < h | 6.C.}., 9 R v.",
"k.. . . . . O 3 l ^ ! k ^ p . . . . ; u ^ ^ ! ! ! ! Q Q W Q ! _ 3 h W l ` - . X ; r j Q z ' ; u l ^ ! ^ y X O 3 k k k ' v 7 R.z.",
"z.- . . . . . @ - - - - - O . . . . O - - - - - - - - - - - - - @ - - - - X . . . O - - - @ @ - - - - - + . . @ - - - - @ q -.z.",
"z.j . . . . . . . . . . . . . . . . . . . . . . . . . . . . . . . . . . . . . . . . . . . . . . . . . . . . . . . . . . . w t.  ",
"z.8.. o o o o & o o & o o & o o & o o o & o o & o o & o o & o o o & o o o o & o & o o & o o & o o o & o o & o o o * o o 0 U z.  ",
"  z.; . . . . . . . . . . . . . . . . . . . . . . . . . . . . . . . . . . . . . . . . . . . . . . . . . . . . . . . . . = ..z.  ",
"  z.^ . & = = = = = = = = = = = = = = = = = = = = = = = = = = = = = = = = = = = = = = = = = = = = = = = = = = = = = = 0 I n.    ",
"    l.O . . o . . . o . o . . . . . . . . . . o . o . . . . . . . o . o . o o . . . . o . o o . X . . o . o . . o . . & +.z.    ",
"    z.^ . . o o o o . o . o o o o o o o o o . o X o o o o o o o o X . o . o . o o o . o . o . o o o . o X o o o X o & M x.      ",
"      z.; . . . . . . . . . . . . . . . . . . . . . . . . . . . . . . . . . . . . . . . . . . . . . . . . . . . . . & ..z.      ",
"      z.7.. . . . . . . . . . . . . . . . . . . . . . . . . . . . . . . . . . . . . . . . . . . . . . . . . . . . o N l.        ",
"        z.k . . . . . . . . . . . . . . . . . . . . . . . . . . . . . . . . . . . . . . . . . . . . . . . . . . o & 0.z.        ",
"          z.2 . & & & & & & & & & & & & & & & & & & & & & & & & & & & & & & & & & & & & & & & & & & & & & & & = w o.z.          ",
"          z.k.@ . o & & & & & & & & & & & & & & & & & & & & & & & & & & & & & & & & & & & & & & & & & & & & = 0 O.z.            ",
"            z.q.O . . . . . . . . . . . . . . . . . . . . . . . . . . . . . . . . . . . . . . . . . . . . . . y l.              ",
"              z.8.O . . . . . . . . . . . . . . . . . . . . . . . . . . . . . . . . . . . . . . . . . . . o p l.z.              ",
"                z.q.@ . . . . . . . . . . . . . . . . . . . . . . . . . . . . . . . . . . . . . . . . . . u l.z.                ",
"                  z.k.3 . . . . . . . . . . . . . . . . . . . . . . . . . . . . . . . . . . . . . . . . W z.                    ",
"                    z.l.k . . . . . . . . . . . . . . . . . . . . . . . . . . . . . . . . . . . . . X | z.                      ",
"                        z.| - . . . . . . . . . o . X . . . . . . . . . . . o . . . . . o . . X . y k.z.                        ",
"                          z.l.^ X . . . . . . . . . . . . . . . . . . . . . . . . . . . . . . ; 6.z.                            ",
"                              z.k.W O . . . o o o o o o o o o o o o o o o o o o o o . . . < [ l.z.                              ",
"                                  z.l.] r . . . . . . . . . . . . . . . . . . . . . X h 5.z.z.                                  ",
"                                      z.z.j.] y O . . . . . . . . . . . . . . ; k | l.z.z.                                      ",
"                                            z.z.z.j.| ^ k j u t y h j W ] 5.l.z.z.z.                                            ",
"                                                    z.z.z.z.z.z.z.z.z.z.z.                                                      ",
"                                                                                                                                "
};
