/* XPM */
static char *bitcoin321708370693[] = {
/* columns rows colors chars-per-pixel */
"32 32 138 2 ",
"   c None",
".  c #030303",
"X  c #020C01",
"o  c #080E07",
"O  c #0C0C0C",
"+  c #031301",
"@  c #041B02",
"#  c #0D1C0B",
"$  c #121212",
"%  c #111A10",
"&  c #052201",
"*  c #082605",
"=  c #062E00",
"-  c #082E03",
";  c #0E2D0A",
":  c #073402",
">  c #093304",
",  c #073B00",
"<  c #083E00",
"1  c #0D3109",
"2  c #132411",
"3  c #173513",
"4  c #1A3417",
"5  c #183C14",
"6  c #1C3419",
"7  c #1D3D19",
"8  c #223B1E",
"9  c #212221",
"0  c #313231",
"q  c #333A33",
"w  c #0A4202",
"e  c #0B4C02",
"r  c #104F08",
"t  c #0B5201",
"y  c #0C5C01",
"u  c #1D5016",
"i  c #244B1E",
"p  c #0C6201",
"a  c #0E6E01",
"s  c #0E7200",
"d  c #0F7C01",
"f  c #1F6616",
"g  c #1A6B10",
"h  c #1C7210",
"j  c #246C1A",
"k  c #26731C",
"l  c #28761D",
"z  c #257C1A",
"x  c #264722",
"c  c #2A4227",
"v  c #2B4E26",
"b  c #2F412D",
"n  c #30582B",
"m  c #394737",
"M  c #3B423A",
"N  c #2F6228",
"B  c #31672A",
"V  c #336C2C",
"C  c #2E7225",
"Z  c #317728",
"A  c #407A39",
"S  c #434F42",
"D  c #4A4F49",
"F  c #4A6D45",
"G  c #526C4E",
"H  c #128403",
"J  c #118C01",
"K  c #119200",
"L  c #139C01",
"P  c #218314",
"I  c #218B13",
"U  c #29831E",
"Y  c #14A200",
"T  c #15AD00",
"R  c #19AF04",
"E  c #1DA50B",
"W  c #15B200",
"Q  c #16BB00",
"!  c #1CB008",
"~  c #2FA51F",
"^  c #2FAB1E",
"/  c #318026",
"(  c #36842B",
")  c #358B2A",
"_  c #2E9420",
"`  c #2F9920",
"'  c #329225",
"]  c #3A9B2D",
"[  c #3F8437",
"{  c #3F9933",
"}  c #35AF25",
"|  c #3EAD2F",
" . c #3CB62C",
".. c #47833F",
"X. c #478A3E",
"o. c #429038",
"O. c #46A439",
"+. c #4BAD3E",
"@. c #40BB31",
"#. c #48BB39",
"$. c #17C400",
"%. c #19C502",
"&. c #1BCB03",
"*. c #1EC308",
"=. c #1BD402",
"-. c #1BDC01",
";. c #24C30F",
":. c #24CC0D",
">. c #22D40A",
",. c #23DF0A",
"<. c #2EC719",
"1. c #2ECF18",
"2. c #34CB1F",
"3. c #30D41A",
"4. c #33DD1D",
"5. c #1BE400",
"6. c #1CEE01",
"7. c #1DF300",
"8. c #1EFF00",
"9. c #21E107",
"0. c #22F106",
"q. c #22FB05",
"w. c #2AF50F",
"e. c #2AEB10",
"r. c #34E91C",
"t. c #3EC12D",
"y. c #3CDA27",
"u. c #4EC43E",
"i. c #4DD63B",
"p. c #50D83E",
"a. c #488540",
"s. c #4F9646",
"d. c #4B9A41",
"f. c #4BA040",
"g. c #50A444",
"h. c #52AC46",
"j. c #57A94C",
"k. c #58D049",
/* pixels */
"                            8.8.8.                              ",
"                    6.E h u 7 8 8 v V ] 2.q.                    ",
"                $.e o . . . . . . . . . $ b o.e.                ",
"            -.t o $ O O O O O $ O O O $ $ O % M +.q.            ",
"          T + . . . . . . . . . O . . . . O . . $ F r.          ",
"        K . . . . . . . . . . . . . . . . . . . . . m r.        ",
"      L . . . . . . . . . . . . . . . . . . . . . . . S r.      ",
"    $.X . . . . . . . . . . . . . . . . . . . . . . . . G w.    ",
"  8.= . . . . . O . . O . . O . . O . . O . . O . . . O $ h.    ",
"  K . . . . . . . . . . . . . . . . . . . . . . . . . . . 0 r.  ",
"8.* O O $ $ O $ $ O O $ $ O O O O $ O $ O O O O O O $ O O $ g.  ",
"Q . . O . O . . . O . . . O o . O . . O . O O . O . . O . O D w.",
"a : j N . . > j V w j k k k C B e C k k C 3 X - f Z # - k Z c y.",
"< * W k.2 o a :.Z e *.&.:.&.=.+.y &.%.*.=.k.x # H :.a.J 9.} % #.",
"& X H 1.n + L 1.7 e =.E s s a g p &.U : t -.o.. = $.:.$.3.> . X.",
"+ . w &.s.: Q  .+ e =. .~ ^ X.X p &.O.U L 5.) . . p =.>.z . . ..",
"+ . * $.u.H =./ o t -.R H J U o p &.%.%.&.;.; o o d &.>.Z o o a.",
"* . X J -.&.4.5 . t -.| _ ` ` ..p &.P K &. .f.X w $.$.&.k.7 . ( ",
"w O O w 5.&.u.+ O t 5.&.$.$.%.O.y *.V > Y &.k.* Y =.P p &.j.%  .",
"s . . @ e e w . . - t t t t e e > e > . & w w > e t @ @ w r 6 3.",
"$.. o O O O O O O O O O O O O O O O O O O O O O O O O O O O q 6.",
"8.- O O O O O O O O O O O O $ O $ O O O $ O O O $ O O $ $ $ '   ",
"  L . O . O O . O . O O . O O . . O . O . O . O . O O . O 9 ,.  ",
"  8., . . . . . . . . . . . . . . . . . . . . . . . . . . I     ",
"    -.X O O O O O O O O O $ O O O O O O O O O O O O O $ i 6.    ",
"      W X O . O O . O . . O O . . O O . O O O . O . o 2 ,.      ",
"        T X . . . . . . . . . . . . . . . . . . . . @ =.        ",
"          $.+ . . . . . . . . . . . . . . . . . . , -.          ",
"            5.s . . . . . . . . . . . . . . . X K 7.            ",
"                =.s X . . O . . . . . . . & J 5.                ",
"                    7.Q J y , = : < p L $.                      ",
"                                                                "
};
